<?xml version="1.0" standalone="no"?>
<!DOCTYPE svg PUBLIC "-//W3C//DTD SVG 20010904//EN"
 "http://www.w3.org/TR/2001/REC-SVG-20010904/DTD/svg10.dtd">
<svg version="1.0" xmlns="http://www.w3.org/2000/svg"
 width="512.000000pt" height="512.000000pt" viewBox="0 0 512.000000 512.000000"
 preserveAspectRatio="xMidYMid meet">

<g transform="translate(0.000000,512.000000) scale(0.100000,-0.100000)"
fill="#000000" stroke="none">
<path d="M4260 4493 c-161 -43 -382 -181 -603 -375 -167 -147 -1939 -1939
-2006 -2028 -35 -47 -66 -86 -70 -87 -3 -2 -193 26 -420 61 -228 35 -420 62
-427 59 -17 -6 -134 -160 -134 -176 0 -8 8 -21 18 -29 9 -8 194 -116 411 -238
216 -123 401 -231 411 -239 10 -9 112 -182 225 -386 242 -433 249 -445 274
-445 27 0 190 77 196 92 3 7 -24 201 -60 431 -36 230 -65 426 -65 435 1 10 34
40 78 69 42 29 106 78 142 109 147 127 1786 1772 1886 1892 222 266 361 512
395 697 11 57 10 70 -4 100 -34 72 -121 92 -247 58z"/>
<path d="M1555 4240 c-81 -81 -114 -121 -104 -124 8 -3 108 -26 223 -52 l208
-46 34 33 c19 18 34 40 34 48 -1 25 -232 261 -255 261 -13 0 -66 -46 -140
-120z"/>
<path d="M2421 4036 l-113 -114 98 -22 c55 -12 155 -35 224 -51 l125 -28 27
26 c16 15 28 34 28 43 0 20 -240 260 -260 260 -9 0 -66 -51 -129 -114z"/>
<path d="M1015 4081 c-134 -61 -150 -237 -28 -314 55 -36 1411 -777 1420 -777
11 0 678 668 673 673 -3 3 -99 26 -215 52 -360 80 -1260 283 -1488 335 -236
54 -300 60 -362 31z"/>
<path d="M3340 2735 c-310 -311 -333 -335 -323 -357 29 -65 768 -1376 787
-1396 33 -37 70 -52 129 -52 62 0 108 25 144 79 46 68 51 40 -177 1066 -117
528 -216 968 -219 977 -5 14 -81 -56 -341 -317z"/>
<path d="M3845 2790 c-17 -18 -15 -28 31 -237 26 -120 49 -220 51 -222 8 -11
213 205 213 224 0 28 -228 255 -256 255 -11 0 -29 -9 -39 -20z"/>
<path d="M4048 1923 l-26 -28 49 -219 c27 -121 50 -221 52 -222 2 -2 56 50
121 115 92 93 117 123 112 138 -3 11 -57 70 -120 131 -124 123 -143 132 -188
85z"/>
</g>
</svg>
