<?xml version="1.0" standalone="no"?>
<!DOCTYPE svg PUBLIC "-//W3C//DTD SVG 20010904//EN"
 "http://www.w3.org/TR/2001/REC-SVG-20010904/DTD/svg10.dtd">
<svg version="1.0" xmlns="http://www.w3.org/2000/svg"
 width="512.000000pt" height="512.000000pt" viewBox="0 0 512.000000 512.000000"
 preserveAspectRatio="xMidYMid meet">

<g transform="translate(0.000000,512.000000) scale(0.100000,-0.100000)"
fill="#000000" stroke="none">
<path d="M756 4763 c-10 -10 -37 -54 -60 -98 l-41 -80 -85 -12 c-70 -11 -89
-18 -107 -39 -38 -42 -30 -69 45 -148 l68 -71 -15 -97 c-13 -89 -13 -99 3
-122 29 -45 61 -44 153 5 l83 44 83 -44 c92 -49 124 -50 153 -5 15 23 16 33 2
122 l-14 97 68 71 c75 79 83 106 46 148 -19 21 -38 28 -108 39 l-85 12 -41 80
c-49 94 -68 115 -104 115 -15 0 -35 -8 -44 -17z"/>
<path d="M1636 4763 c-10 -10 -37 -54 -60 -98 l-41 -80 -85 -12 c-70 -11 -89
-18 -107 -39 -38 -42 -30 -69 45 -148 l68 -71 -15 -97 c-13 -89 -13 -99 3
-122 29 -45 61 -44 153 5 l83 44 83 -44 c92 -49 124 -50 153 -5 15 23 16 33 2
122 l-14 97 68 71 c75 79 83 106 46 148 -19 21 -38 28 -108 39 l-85 12 -41 80
c-49 94 -68 115 -104 115 -15 0 -35 -8 -44 -17z"/>
<path d="M2516 4763 c-10 -10 -37 -54 -60 -98 l-41 -80 -85 -12 c-70 -11 -89
-18 -107 -39 -38 -42 -30 -69 45 -148 l68 -71 -15 -97 c-13 -89 -13 -99 3
-122 29 -45 61 -44 153 5 l83 44 83 -44 c92 -49 124 -50 153 -5 16 23 16 33 3
122 l-15 97 68 71 c75 79 83 106 46 148 -19 21 -38 28 -108 39 l-85 12 -41 80
c-49 94 -68 115 -104 115 -15 0 -35 -8 -44 -17z"/>
<path d="M3396 4763 c-10 -10 -37 -54 -60 -98 l-41 -80 -85 -12 c-70 -11 -89
-18 -107 -39 -38 -42 -30 -69 45 -148 l68 -71 -15 -97 c-13 -89 -13 -99 3
-122 29 -45 61 -44 153 5 l83 44 83 -44 c92 -49 124 -50 153 -5 15 23 16 33 2
122 l-14 97 68 71 c75 79 83 106 46 148 -19 21 -38 28 -108 39 l-85 12 -41 80
c-49 94 -68 115 -104 115 -15 0 -35 -8 -44 -17z"/>
<path d="M4276 4763 c-10 -10 -37 -54 -60 -98 l-41 -80 -85 -12 c-70 -11 -89
-18 -107 -39 -38 -42 -30 -69 45 -148 l68 -71 -15 -97 c-13 -89 -13 -99 3
-122 29 -45 61 -44 153 5 l83 44 83 -44 c92 -49 124 -50 153 -5 15 23 16 33 2
122 l-14 97 68 71 c75 79 83 106 46 148 -19 21 -38 28 -108 39 l-85 12 -41 80
c-49 94 -68 115 -104 115 -15 0 -35 -8 -44 -17z"/>
<path d="M1212 3848 c-17 -17 -17 -279 0 -296 17 -17 2679 -17 2696 0 17 17
17 279 0 296 -17 17 -2679 17 -2696 0z"/>
<path d="M1372 3368 c-17 -17 -17 -2999 0 -3016 9 -9 116 -12 420 -12 l407 0
3 285 3 285 33 32 32 33 290 0 290 0 32 -33 33 -32 3 -285 3 -285 407 0 c304
0 411 3 420 12 17 17 17 2999 0 3016 -17 17 -2359 17 -2376 0z m683 -253 c25
-24 25 -26 25 -215 0 -257 17 -240 -240 -240 -257 0 -240 -17 -240 240 0 257
-17 240 240 240 189 0 191 0 215 -25z m720 0 c25 -24 25 -26 25 -215 0 -189 0
-191 -25 -215 -24 -25 -26 -25 -215 -25 -257 0 -240 -17 -240 240 0 257 -17
240 240 240 189 0 191 0 215 -25z m720 0 c25 -24 25 -26 25 -215 0 -189 0
-191 -25 -215 -24 -25 -26 -25 -215 -25 -257 0 -240 -17 -240 240 0 189 0 191
25 215 24 25 26 25 215 25 189 0 191 0 215 -25z m-1440 -720 c25 -24 25 -26
25 -215 0 -257 17 -240 -240 -240 -257 0 -240 -17 -240 240 0 189 0 191 25
215 24 25 26 25 215 25 189 0 191 0 215 -25z m720 0 c25 -24 25 -26 25 -215 0
-189 0 -191 -25 -215 -24 -25 -26 -25 -215 -25 -257 0 -240 -17 -240 240 0
189 0 191 25 215 24 25 26 25 215 25 189 0 191 0 215 -25z m720 0 c25 -24 25
-26 25 -215 0 -189 0 -191 -25 -215 -24 -25 -26 -25 -215 -25 -257 0 -240 -17
-240 240 0 257 -17 240 240 240 189 0 191 0 215 -25z m-1440 -720 c25 -24 25
-26 25 -215 0 -257 17 -240 -240 -240 -257 0 -240 -17 -240 240 0 189 0 191
25 215 24 25 26 25 215 25 189 0 191 0 215 -25z m720 0 c25 -24 25 -26 25
-215 0 -257 17 -240 -240 -240 -257 0 -240 -17 -240 240 0 189 0 191 25 215
24 25 26 25 215 25 189 0 191 0 215 -25z m720 0 c25 -24 25 -26 25 -215 0
-257 17 -240 -240 -240 -257 0 -240 -17 -240 240 0 257 -17 240 240 240 189 0
191 0 215 -25z"/>
<path d="M1760 2900 l0 -80 80 0 80 0 0 80 0 80 -80 0 -80 0 0 -80z"/>
<path d="M2480 2900 l0 -80 80 0 80 0 0 80 0 80 -80 0 -80 0 0 -80z"/>
<path d="M3200 2900 l0 -80 80 0 80 0 0 80 0 80 -80 0 -80 0 0 -80z"/>
<path d="M1760 2180 l0 -80 80 0 80 0 0 80 0 80 -80 0 -80 0 0 -80z"/>
<path d="M2480 2180 l0 -80 80 0 80 0 0 80 0 80 -80 0 -80 0 0 -80z"/>
<path d="M3200 2180 l0 -80 80 0 80 0 0 80 0 80 -80 0 -80 0 0 -80z"/>
<path d="M1760 1460 l0 -80 80 0 80 0 0 80 0 80 -80 0 -80 0 0 -80z"/>
<path d="M2480 1460 l0 -80 80 0 80 0 0 80 0 80 -80 0 -80 0 0 -80z"/>
<path d="M3200 1460 l0 -80 80 0 80 0 0 80 0 80 -80 0 -80 0 0 -80z"/>
<path d="M492 3208 c-17 -17 -17 -279 0 -296 9 -9 100 -12 350 -12 323 0 338
1 348 19 13 26 13 256 0 282 -10 18 -25 19 -348 19 -250 0 -341 -3 -350 -12z"/>
<path d="M3930 3201 c-5 -11 -10 -74 -10 -141 0 -67 5 -130 10 -141 10 -18 25
-19 348 -19 250 0 341 3 350 12 8 8 12 56 12 148 0 92 -4 140 -12 148 -9 9
-100 12 -350 12 -323 0 -338 -1 -348 -19z"/>
<path d="M640 2721 c-14 -27 -14 -2335 0 -2362 10 -18 24 -19 268 -19 187 0
261 3 270 12 17 17 17 2359 0 2376 -9 9 -83 12 -270 12 -244 0 -258 -1 -268
-19z"/>
<path d="M3942 2728 c-17 -17 -17 -2359 0 -2376 9 -9 81 -12 264 -12 216 0
255 2 268 16 14 14 16 135 16 1180 0 784 -3 1172 -10 1185 -10 18 -24 19 -268
19 -187 0 -261 -3 -270 -12z"/>
<path d="M2360 580 l0 -240 200 0 200 0 0 240 0 240 -200 0 -200 0 0 -240z"/>
</g>
</svg>
