<?xml version="1.0" standalone="no"?>
<!DOCTYPE svg PUBLIC "-//W3C//DTD SVG 20010904//EN"
 "http://www.w3.org/TR/2001/REC-SVG-20010904/DTD/svg10.dtd">
<svg version="1.0" xmlns="http://www.w3.org/2000/svg"
 width="512.000000pt" height="512.000000pt" viewBox="0 0 512.000000 512.000000"
 preserveAspectRatio="xMidYMid meet">

<g transform="translate(0.000000,512.000000) scale(0.100000,-0.100000)"
fill="#000000" stroke="none">
<path d="M2415 4800 c-572 -64 -1050 -451 -1223 -990 -66 -207 -86 -413 -57
-594 76 -485 475 -1381 1143 -2571 80 -143 158 -272 173 -287 53 -54 155 -57
214 -5 68 61 649 1145 884 1652 327 704 463 1140 448 1430 -37 678 -528 1234
-1193 1350 -108 19 -290 26 -389 15z m312 -816 c29 -8 83 -29 120 -48 209
-107 335 -300 350 -536 18 -299 -195 -586 -487 -654 -83 -20 -217 -20 -298 -1
-177 42 -341 173 -421 335 -69 141 -87 279 -55 423 56 256 271 457 529 496 71
11 188 4 262 -15z"/>
<path d="M2484 3676 c-93 -23 -175 -92 -216 -181 -35 -76 -33 -191 5 -267 30
-62 83 -115 149 -150 36 -19 58 -23 138 -23 80 0 102 4 138 23 66 35 119 88
149 150 38 76 40 191 5 267 -43 93 -130 163 -230 184 -63 13 -72 13 -138 -3z"/>
</g>
</svg>
