<?xml version="1.0" standalone="no"?>
<!DOCTYPE svg PUBLIC "-//W3C//DTD SVG 20010904//EN"
 "http://www.w3.org/TR/2001/REC-SVG-20010904/DTD/svg10.dtd">
<svg version="1.0" xmlns="http://www.w3.org/2000/svg"
 width="512.000000pt" height="512.000000pt" viewBox="0 0 512.000000 512.000000"
 preserveAspectRatio="xMidYMid meet">

<g transform="translate(0.000000,512.000000) scale(0.100000,-0.100000)"
fill="#000000" stroke="none">
<path d="M1919 4287 c-27 -18 -205 -323 -976 -1672 -633 -1108 -943 -1659
-943 -1678 0 -15 7 -41 15 -57 33 -64 -102 -60 1856 -60 l1781 0 34 34 c66 66
119 -55 -791 1766 -726 1452 -829 1653 -858 1670 -42 26 -76 25 -118 -3z"/>
<path d="M3552 3597 c-13 -7 -137 -170 -277 -361 l-254 -347 517 -1035 517
-1034 488 0 c537 0 531 -1 563 61 9 18 14 46 12 63 -4 36 -1398 2599 -1433
2635 -27 28 -99 38 -133 18z"/>
</g>
</svg>
