<?xml version="1.0" standalone="no"?>
<!DOCTYPE svg PUBLIC "-//W3C//DTD SVG 20010904//EN"
 "http://www.w3.org/TR/2001/REC-SVG-20010904/DTD/svg10.dtd">
<svg version="1.0" xmlns="http://www.w3.org/2000/svg"
 width="512.000000pt" height="512.000000pt" viewBox="0 0 512.000000 512.000000"
 preserveAspectRatio="xMidYMid meet">

<g transform="translate(0.000000,512.000000) scale(0.100000,-0.100000)"
fill="#000000" stroke="none">
<path d="M4504 5104 c-129 -31 -147 -47 -731 -655 -298 -310 -547 -565 -552
-567 -6 -2 -540 172 -1188 387 -648 214 -1222 405 -1276 422 l-98 33 -267
-267 c-170 -170 -263 -270 -257 -276 6 -5 483 -300 1060 -656 578 -355 1051
-649 1053 -653 3 -10 -1057 -1116 -1073 -1120 -6 -1 -164 22 -350 53 l-340 55
-242 -242 -243 -243 509 -179 509 -178 178 -509 178 -510 244 244 243 243 -56
334 c-31 184 -55 341 -53 350 3 19 1108 1082 1120 1078 4 -2 298 -475 653
-1053 356 -577 651 -1054 656 -1060 6 -6 105 86 276 257 l266 266 -421 1275
c-232 701 -422 1278 -422 1283 0 5 253 252 561 548 399 383 573 557 600 599
157 242 64 575 -195 702 -113 56 -220 68 -342 39z"/>
</g>
</svg>
